<?xml version="1.0" encoding="utf-8"?>
<!--
  - Copyright (c) 2025. Brusegan Samuele, Davanzo Andrea
  - Questo file fa parte di GradeCraft ed è rilasciato
  - sotto la licenza MIT. Vedere il file LICENSE per i dettagli.
  -->
<svg width="28" height="30" viewBox="0 0 40 36" fill="none" xmlns="http://www.w3.org/2000/svg">
    <path d="M26.0555 30C26.0555 30 19.0555 30 19.0555 30C17.9814 30 17.1111 29.1392 17.1111 28.0769C17.1111 28.0769 17.1111 21.1539 17.1111 21.1539C17.1111 20.3038 16.415 19.6154 15.5555 19.6154C15.5555 19.6154 12.4445 19.6154 12.4445 19.6154C11.585 19.6154 10.8889 20.3038 10.8889 21.1539C10.8889 21.1539 10.8889 28.0769 10.8889 28.0769C10.8889 29.1392 10.0186 30 8.94446 30C8.94446 30 1.94446 30 1.94446 30C0.870331 30 0 29.1392 0 28.0769C0 28.0769 0 13.3946 0 13.3946C0 11.6262 0.819763 9.95538 2.22366 8.86151C2.22366 8.86151 13.2774 0.246948 13.2774 0.246948C13.7013 -0.0823364 14.2987 -0.0823364 14.7218 0.246948C14.7218 0.246948 25.7771 8.86151 25.7771 8.86151C27.181 9.95538 28 11.6254 28 13.3931C28 13.3931 28 28.0769 28 28.0769C28 29.1392 27.1297 30 26.0555 30C26.0555 30 26.0555 30 26.0555 30Z" fill="#FFFFFF" fill-rule="evenodd" transform="translate(6 3)"/>
</svg>