<?xml version="1.0" encoding="utf-8"?>
<svg width="26" height="32" viewBox="0 0 26 32" fill="none" xmlns="http://www.w3.org/2000/svg">
    <defs>
        <!--<mask id="mask_1" x="238" y="1242" width="26" height="32">
            <path d="M19 0C22.8665 0 26 3.13348 26 7L26 25C26 28.8665 22.8665 32 19 32L7 32C3.13348 32 0 28.8665 0 25L0 7C0 3.13348 3.13348 0 7 0L19 0Z" fill="#FFFFFF" />
        </mask>-->
    </defs>
    <g>
        <g transform="scale(1 1)">
            <g transform="scale(1 1)" mask="url(#mask_1)">
                <path d="M17.6667 0C19.3237 0 20.6667 1.34292 20.6667 3L20.6667 23.6667C20.6667 25.3237 19.3237 26.6667 17.6667 26.6667L3 26.6667C1.34292 26.6667 0 25.3237 0 23.6667L0 3C0 1.34292 1.34292 0 3 0L17.6667 0Z" fill="#9C9C9C" transform="translate(2.667 2.667)" />
            </g>
            <path d="M11.3333 0C12.0698 0 12.6667 0.596854 12.6667 1.33333L12.6667 1.33333C12.6667 2.06981 12.0698 2.66667 11.3333 2.66667L1.33333 2.66667C0.596854 2.66667 0 2.06981 0 1.33333L0 1.33333C0 0.596854 0.596854 0 1.33333 0L11.3333 0Z" fill="#FFFFFF" transform="matrix(1 0 0 1 4.667 7.333)" />
            <path d="M11.3333 0C12.0698 0 12.6667 0.596853 12.6667 1.33333L12.6667 1.33333C12.6667 2.06981 12.0698 2.66667 11.3333 2.66667L1.33333 2.66667C0.596854 2.66667 0 2.06981 0 1.33333L0 1.33333C0 0.596853 0.596854 0 1.33333 0L11.3333 0Z" fill="#FFFFFF" transform="matrix(1 0 0 1 4.667 12.667)" />
            <path d="M11.3333 0C12.0698 0 12.6667 0.596853 12.6667 1.33333L12.6667 1.33333C12.6667 2.06981 12.0698 2.66666 11.3333 2.66666L1.33333 2.66666C0.596852 2.66666 0 2.06981 0 1.33333L0 1.33333C0 0.596853 0.596852 0 1.33333 0L11.3333 0Z" fill="#FFFFFF" transform="matrix(1 0 0 1 4.667 18)" />
            <path d="M0.999998 0C1.55236 0 2 0.447639 2 0.999999L2 1.66667C2 2.21903 1.55236 2.66667 0.999998 2.66667L0.999998 2.66667C0.447639 2.66667 0 2.21903 0 1.66667L0 0.999999C0 0.447639 0.447639 0 0.999998 0Z" fill="#FFFFFF" transform="matrix(1 0 0 1 19.333 7.333)" />
            <path d="M0.999998 0C1.55236 0 2 0.447639 2 0.999999L2 1.66667C2 2.21903 1.55236 2.66667 0.999998 2.66667L0.999998 2.66667C0.447639 2.66667 0 2.21903 0 1.66667L0 0.999999C0 0.447639 0.447639 0 0.999998 0Z" fill="#FFFFFF" transform="matrix(1 0 0 1 19.333 12.667)" />
            <path d="M0.999998 0C1.55236 0 2 0.447639 2 0.999998L2 1.66666C2 2.21902 1.55236 2.66666 0.999998 2.66666L0.999998 2.66666C0.447639 2.66666 0 2.21902 0 1.66666L0 0.999998C0 0.447639 0.447639 0 0.999998 0Z" fill="#FFFFFF" transform="matrix(1 0 0 1 19.333 18)" />
        </g>
    </g>
</svg>